<svg width="374" height="63" viewBox="0 0 374 63" fill="none" xmlns="http://www.w3.org/2000/svg">
<path d="M0.0927734 0.678711H18.1396C28.4961 0.678711 35.0586 7.20703 35.0586 17.5635C35.0586 27.8174 28.291 34.3457 17.6611 34.3457H9.7998V50H0.0927734V0.678711ZM9.7998 8.64258V26.3477H15.6787C22.0361 26.3477 25.2148 23.4424 25.2148 17.4951C25.2148 11.582 22.0361 8.64258 15.6787 8.64258H9.7998Z" fill="url(#paint0_linear_1_4)"/>
<path d="M53.4395 33.2861V43.1299H64.377V50H37.3066V43.1299H44.4844V19.2041H36.623V12.2998H53.5078V21.9727H54.9775C56.6182 14.4873 60.4805 11.3086 67.5898 11.3086C69.709 11.3086 71.623 11.582 72.9561 12.0947V22.2461C71.2471 21.5967 68.7861 21.1523 66.667 21.1523C57.7803 21.1523 53.4395 25.1855 53.4395 33.2861Z" fill="url(#paint1_linear_1_4)"/>
<path d="M91.6787 50.8203C81.0488 50.8203 74.3496 44.3604 74.3496 34.0723V28.2617C74.3496 17.9736 81.0488 11.5137 91.6787 11.5137C102.309 11.5137 109.008 17.9736 109.008 28.2617V34.0723C109.008 44.3604 102.309 50.8203 91.6787 50.8203ZM91.6787 19.1699C86.6543 19.1699 83.5439 22.793 83.5439 28.6377V33.6963C83.5439 39.5068 86.6543 43.1641 91.6787 43.1641C96.7031 43.1641 99.8135 39.5068 99.8135 33.6963V28.6377C99.8135 22.793 96.7031 19.1699 91.6787 19.1699Z" fill="url(#paint2_linear_1_4)"/>
<path d="M152.238 20.7422V50H144.309V23.8867C144.309 21.1865 142.976 19.5801 140.822 19.5801C138.601 19.5801 137.131 21.3574 137.131 24.126V50H129.304V23.8867C129.304 21.1865 128.039 19.5801 125.817 19.5801C123.562 19.5801 122.092 21.3574 122.092 24.126V50H114.162V12.2998H122.331V18.2129H123.322C124.177 13.8721 126.74 11.5137 130.466 11.5137C133.884 11.5137 136.276 13.8379 137.062 17.9053H138.054C138.84 13.8721 141.472 11.5137 145.061 11.5137C149.709 11.5137 152.238 14.7607 152.238 20.7422Z" fill="url(#paint3_linear_1_4)"/>
<path d="M178.926 11.7188C187.573 11.7188 192.666 17.666 192.666 27.9199V34.4141C192.666 44.7021 187.573 50.6494 178.926 50.6494C173.491 50.6494 169.731 48.1201 168.467 43.6084H167.783V62.5439H158.042V12.2998H167.646V18.7939H168.364C169.697 14.248 173.423 11.7188 178.926 11.7188ZM175.337 19.8535C170.483 19.8535 167.544 22.998 167.544 28.1934V34.4482C167.544 39.6436 170.483 42.7881 175.337 42.7881C180.156 42.7881 183.13 39.6094 183.13 34.4482V28.1934C183.13 23.0322 180.156 19.8535 175.337 19.8535Z" fill="url(#paint4_linear_1_4)"/>
<path d="M204.45 1.5332H213.61V12.6758H227.658V20.1611H213.781V38.1738C213.781 41.0107 215.798 42.6172 219.387 42.6172C220.275 42.6172 226.804 42.583 227.214 42.5488V49.9316C226.838 50 219.387 50.0684 218.635 50.0684C208.381 50.0684 204.45 46.8213 204.45 38.0713V20.1611H194.641V12.6758H204.45V1.5332Z" fill="url(#paint5_linear_1_4)"/>
<path d="M232.521 23.3057C232.521 15.9912 238.399 11.4111 247.73 11.4111C256.856 11.4111 262.428 15.5127 262.872 22.5879H254.054C253.609 20.0928 251.148 18.5547 247.662 18.5547C244.107 18.5547 241.749 20.1611 241.749 22.5537C241.749 24.6045 243.321 25.835 246.979 26.5869L252.823 27.7832C260.445 29.3555 263.829 32.6025 263.829 38.3447C263.829 45.9668 257.608 50.7861 247.799 50.7861C238.16 50.7861 232.213 46.6504 231.7 39.5752H240.929C241.51 42.1729 244.039 43.6084 247.936 43.6084C251.764 43.6084 254.225 42.002 254.225 39.541C254.225 37.4219 252.789 36.3965 248.824 35.542L243.185 34.3457C236.109 32.8076 232.521 29.1162 232.521 23.3057Z" fill="url(#paint6_linear_1_4)"/>
<path d="M287.49 11.7188C296.138 11.7188 301.23 17.666 301.23 27.9199V34.4141C301.23 44.7021 296.138 50.6494 287.49 50.6494C282.056 50.6494 278.296 48.1201 277.031 43.6084H276.348V62.5439H266.606V12.2998H276.211V18.7939H276.929C278.262 14.248 281.987 11.7188 287.49 11.7188ZM283.901 19.8535C279.048 19.8535 276.108 22.998 276.108 28.1934V34.4482C276.108 39.6436 279.048 42.7881 283.901 42.7881C288.721 42.7881 291.694 39.6094 291.694 34.4482V28.1934C291.694 23.0322 288.721 19.8535 283.901 19.8535Z" fill="url(#paint7_linear_1_4)"/>
<path d="M321.808 50.8203C311.178 50.8203 304.479 44.3604 304.479 34.0723V28.2617C304.479 17.9736 311.178 11.5137 321.808 11.5137C332.438 11.5137 339.137 17.9736 339.137 28.2617V34.0723C339.137 44.3604 332.438 50.8203 321.808 50.8203ZM321.808 19.1699C316.783 19.1699 313.673 22.793 313.673 28.6377V33.6963C313.673 39.5068 316.783 43.1641 321.808 43.1641C326.832 43.1641 329.942 39.5068 329.942 33.6963V28.6377C329.942 22.793 326.832 19.1699 321.808 19.1699Z" fill="url(#paint8_linear_1_4)"/>
<path d="M350.536 1.5332H359.696V12.6758H373.744V20.1611H359.867V38.1738C359.867 41.0107 361.884 42.6172 365.473 42.6172C366.361 42.6172 372.89 42.583 373.3 42.5488V49.9316C372.924 50 365.473 50.0684 364.721 50.0684C354.467 50.0684 350.536 46.8213 350.536 38.0713V20.1611H340.727V12.6758H350.536V1.5332Z" fill="url(#paint9_linear_1_4)"/>
<defs>
<linearGradient id="paint0_linear_1_4" x1="195.5" y1="-17" x2="195.5" y2="67" gradientUnits="userSpaceOnUse">
<stop stop-color="#0066FF"/>
<stop offset="1" stop-color="#00A3FF"/>
</linearGradient>
<linearGradient id="paint1_linear_1_4" x1="195.5" y1="-17" x2="195.5" y2="67" gradientUnits="userSpaceOnUse">
<stop stop-color="#0066FF"/>
<stop offset="1" stop-color="#00A3FF"/>
</linearGradient>
<linearGradient id="paint2_linear_1_4" x1="195.5" y1="-17" x2="195.5" y2="67" gradientUnits="userSpaceOnUse">
<stop stop-color="#0066FF"/>
<stop offset="1" stop-color="#00A3FF"/>
</linearGradient>
<linearGradient id="paint3_linear_1_4" x1="195.5" y1="-17" x2="195.5" y2="67" gradientUnits="userSpaceOnUse">
<stop stop-color="#0066FF"/>
<stop offset="1" stop-color="#00A3FF"/>
</linearGradient>
<linearGradient id="paint4_linear_1_4" x1="195.5" y1="-17" x2="195.5" y2="67" gradientUnits="userSpaceOnUse">
<stop stop-color="#0066FF"/>
<stop offset="1" stop-color="#00A3FF"/>
</linearGradient>
<linearGradient id="paint5_linear_1_4" x1="195.5" y1="-17" x2="195.5" y2="67" gradientUnits="userSpaceOnUse">
<stop stop-color="#0066FF"/>
<stop offset="1" stop-color="#00A3FF"/>
</linearGradient>
<linearGradient id="paint6_linear_1_4" x1="195.5" y1="-17" x2="195.5" y2="67" gradientUnits="userSpaceOnUse">
<stop stop-color="#0066FF"/>
<stop offset="1" stop-color="#00A3FF"/>
</linearGradient>
<linearGradient id="paint7_linear_1_4" x1="195.5" y1="-17" x2="195.5" y2="67" gradientUnits="userSpaceOnUse">
<stop stop-color="#0066FF"/>
<stop offset="1" stop-color="#00A3FF"/>
</linearGradient>
<linearGradient id="paint8_linear_1_4" x1="195.5" y1="-17" x2="195.5" y2="67" gradientUnits="userSpaceOnUse">
<stop stop-color="#0066FF"/>
<stop offset="1" stop-color="#00A3FF"/>
</linearGradient>
<linearGradient id="paint9_linear_1_4" x1="195.5" y1="-17" x2="195.5" y2="67" gradientUnits="userSpaceOnUse">
<stop stop-color="#0066FF"/>
<stop offset="1" stop-color="#00A3FF"/>
</linearGradient>
</defs>
</svg>
